<?xml version="1.0" encoding="utf-8"?>
<!-- Generator: Adobe Illustrator 15.0.2, SVG Export Plug-In . SVG Version: 6.00 Build 0)  -->
<!DOCTYPE svg PUBLIC "-//W3C//DTD SVG 1.1//EN" "http://www.w3.org/Graphics/SVG/1.1/DTD/svg11.dtd">
<svg version="1.1"
	 id="Layer_2" xmlns:inkscape="http://www.inkscape.org/namespaces/inkscape" sodipodi:docname="Google Play logo.svg" inkscape:version="0.48.2 r9819" xmlns:sodipodi="http://sodipodi.sourceforge.net/DTD/sodipodi-0.dtd" xmlns:rdf="http://www.w3.org/1999/02/22-rdf-syntax-ns#" xmlns:svg="http://www.w3.org/2000/svg" xmlns:cc="http://creativecommons.org/ns#" xmlns:dc="http://purl.org/dc/elements/1.1/"
	 xmlns="http://www.w3.org/2000/svg" xmlns:xlink="http://www.w3.org/1999/xlink" x="0px" y="0px" width="48px" height="96px"
	 viewBox="0 0 48 96" enable-background="new 0 0 48 96" xml:space="preserve">
<g id="White">
	
		<linearGradient id="path16_2_" gradientUnits="userSpaceOnUse" x1="444.6621" y1="-477.3943" x2="438.5971" y2="-465.491" gradientTransform="matrix(1 0 0 -1 -406.6953 -448.4399)">
		<stop  offset="0" style="stop-color:#FCFCFC"/>
		<stop  offset="1" style="stop-color:#F7F7F7"/>
	</linearGradient>
	<path id="path16" inkscape:connector-curvature="0" fill="url(#path16_2_)" d="M33.142,31.411
		c5.681-3.109,10.02-5.485,10.415-5.701c1.177-0.645,2.41-2.289,0-3.604c-0.775-0.423-4.997-2.726-10.421-5.685l-7.46,7.517
		L33.142,31.411L33.142,31.411z"/>
	
		<linearGradient id="path23_2_" gradientUnits="userSpaceOnUse" x1="435.8438" y1="-475.6199" x2="412.7523" y2="-500.3823" gradientTransform="matrix(1 0 0 -1 -406.6953 -448.4399)">
		<stop  offset="0" style="stop-color:#E7E7E7"/>
		<stop  offset="1" style="stop-color:#A0A0A0"/>
	</linearGradient>
	<path id="path23" inkscape:connector-curvature="0" fill="url(#path23_2_)" d="M25.674,23.94L1.812,47.984
		c0.539,0.068,1.187-0.074,1.933-0.482c1.543-0.845,18.118-9.918,29.397-16.091L25.674,23.94L25.674,23.94z"/>
	
		<linearGradient id="path30_2_" gradientUnits="userSpaceOnUse" x1="435.9658" y1="-468.905" x2="412.5089" y2="-444.6147" gradientTransform="matrix(1 0 0 -1 -406.6953 -448.4399)">
		<stop  offset="0" style="stop-color:#FFFFFF"/>
		<stop  offset="1" style="stop-color:#BEBEBE"/>
	</linearGradient>
	<path id="path30" inkscape:connector-curvature="0" fill="url(#path30_2_)" d="M25.674,23.94l7.46-7.517
		c0,0-27.729-15.129-29.39-16.035c-0.638-0.348-1.334-0.47-1.95-0.333L25.674,23.94z"/>
	
		<linearGradient id="path37_2_" gradientUnits="userSpaceOnUse" x1="419.5322" y1="-496.4236" x2="419.5322" y2="-448.4958" gradientTransform="matrix(1 0 0 -1 -406.6953 -448.4399)">
		<stop  offset="0" style="stop-color:#E9E9E9"/>
		<stop  offset="1" style="stop-color:#919191"/>
	</linearGradient>
	<path id="path37" inkscape:connector-curvature="0" fill="url(#path37_2_)" d="M25.674,23.94L1.794,0.056
		C0.808,0.276,0,1.129,0,2.845c0,2.788,0,39.933,0,42.273c0,1.616,0.636,2.752,1.812,2.865L25.674,23.94z"/>
</g>
<g id="Colour">
	
		<linearGradient id="path16_3_" gradientUnits="userSpaceOnUse" x1="444.6621" y1="-525.3933" x2="438.5975" y2="-513.4909" gradientTransform="matrix(1 0 0 -1 -406.6953 -448.4399)">
		<stop  offset="0" style="stop-color:#FCD08F"/>
		<stop  offset="1" style="stop-color:#F79673"/>
	</linearGradient>
	<path id="path16_1_" inkscape:connector-curvature="0" fill="url(#path16_3_)" d="M33.142,79.411
		c5.681-3.109,10.02-5.485,10.415-5.701c1.177-0.645,2.41-2.289,0-3.604c-0.775-0.423-4.997-2.726-10.421-5.684l-7.46,7.517
		L33.142,79.411L33.142,79.411z"/>
	
		<linearGradient id="path23_3_" gradientUnits="userSpaceOnUse" x1="435.8428" y1="-523.6204" x2="412.752" y2="-548.3821" gradientTransform="matrix(1 0 0 -1 -406.6953 -448.4399)">
		<stop  offset="0" style="stop-color:#E74047"/>
		<stop  offset="1" style="stop-color:#7F50A0"/>
	</linearGradient>
	<path id="path23_1_" inkscape:connector-curvature="0" fill="url(#path23_3_)" d="M25.674,71.94L1.812,95.984
		c0.539,0.068,1.187-0.074,1.933-0.482c1.543-0.845,18.118-9.918,29.397-16.091L25.674,71.94L25.674,71.94z"/>
	
		<linearGradient id="path30_3_" gradientUnits="userSpaceOnUse" x1="435.9678" y1="-516.905" x2="412.5095" y2="-492.6133" gradientTransform="matrix(1 0 0 -1 -406.6953 -448.4399)">
		<stop  offset="0" style="stop-color:#E6FFAB"/>
		<stop  offset="1" style="stop-color:#47BEBC"/>
	</linearGradient>
	<path id="path30_1_" inkscape:connector-curvature="0" fill="url(#path30_3_)" d="M25.674,71.94l7.46-7.517
		c0,0-27.729-15.129-29.39-16.035c-0.638-0.348-1.334-0.47-1.95-0.333L25.674,71.94z"/>
	
		<linearGradient id="path37_3_" gradientUnits="userSpaceOnUse" x1="419.5322" y1="-544.4231" x2="419.5322" y2="-496.4958" gradientTransform="matrix(1 0 0 -1 -406.6953 -448.4399)">
		<stop  offset="0" style="stop-color:#84E9DB"/>
		<stop  offset="1" style="stop-color:#197491"/>
	</linearGradient>
	<path id="path37_1_" inkscape:connector-curvature="0" fill="url(#path37_3_)" d="M25.674,71.94L1.794,48.056
		C0.808,48.276,0,49.129,0,50.845c0,2.788,0,39.933,0,42.273c0,1.615,0.636,2.752,1.812,2.865L25.674,71.94z"/>
</g>
</svg>
