<?xml version="1.0" encoding="utf-8"?>
<!-- Generator: Adobe Illustrator 15.0.2, SVG Export Plug-In . SVG Version: 6.00 Build 0)  -->
<!DOCTYPE svg PUBLIC "-//W3C//DTD SVG 1.1//EN" "http://www.w3.org/Graphics/SVG/1.1/DTD/svg11.dtd">
<svg version="1.1" xmlns="http://www.w3.org/2000/svg" xmlns:xlink="http://www.w3.org/1999/xlink" x="0px" y="0px" width="48px"
	 height="96px" viewBox="-23.5 88.5 48 96" enable-background="new -23.5 88.5 48 96" xml:space="preserve">
<g id="White">
	<path fill="#FFFFFF" d="M-14.286,116.1c0.344-0.258,0.713-0.479,1.097-0.68c1.231-1.662,2.692-3.143,4.334-4.399
		c-0.816-0.334-1.708-0.521-2.645-0.521c-3.214,0-5.916,2.169-6.737,5.121c0.401-0.078,0.814-0.121,1.237-0.121
		C-16.03,115.5-15.113,115.719-14.286,116.1z"/>
	<path fill="#FFFFFF" d="M24.371,126.279C23.249,116.145,14.706,108.5,4.5,108.5c-5.581,0-10.653,2.296-14.298,6.025
		c0.101-0.004,0.196-0.025,0.298-0.025c2.963,0,5.543,1.614,6.926,4.008c0.025-0.001,0.049-0.008,0.074-0.008c2.76,0,5,2.238,5,5
		c0,0.195-0.021,0.389-0.043,0.578c0-0.001,0-0.002,0-0.002C2.243,122.068,0.563,120.5-1.5,120.5c-0.797,0-1.536,0.239-2.16,0.643
		c-0.616-2.66-2.994-4.643-5.84-4.643c-1.83,0-3.466,0.822-4.566,2.113c-0.79-0.684-1.808-1.113-2.934-1.113
		c-2.484,0-4.5,2.016-4.5,4.5c0,0.012,0.003,0.021,0.003,0.034c-0.69,0.618-1.23,1.396-1.578,2.271
		c-0.269,0.68-0.425,1.418-0.425,2.195v2h45.883c0.568,0,1.11-0.242,1.49-0.666C24.252,127.41,24.434,126.846,24.371,126.279z"/>
	<path fill="#FFFFFF" d="M16.5,96.5h-24c-0.682,0-1.317,0.348-1.685,0.922c-0.368,0.575-0.417,1.297-0.131,1.916l3.488,7.559
		c0.336,0.728,1.057,1.163,1.816,1.163c0.236,0,0.476-0.042,0.709-0.131C-0.805,106.98,1.82,106.5,4.5,106.5s5.305,0.48,7.802,1.428
		c0.233,0.089,0.474,0.131,0.71,0.131c0.76,0,1.48-0.435,1.816-1.163l3.488-7.559c0.285-0.619,0.235-1.341-0.133-1.916
		C17.816,96.848,17.182,96.5,16.5,96.5L16.5,96.5z"/>
</g>
<g id="Blue">
	<path fill="#33B5E5" d="M-14.286,164.1c0.344-0.258,0.713-0.479,1.097-0.68c1.231-1.662,2.692-3.143,4.334-4.398
		c-0.816-0.334-1.708-0.521-2.645-0.521c-3.214,0-5.916,2.169-6.737,5.121c0.401-0.078,0.814-0.121,1.237-0.121
		C-16.03,163.5-15.113,163.719-14.286,164.1z"/>
	<path fill="#33B5E5" d="M24.371,174.279C23.249,164.145,14.706,156.5,4.5,156.5c-5.581,0-10.653,2.296-14.298,6.025
		c0.101-0.004,0.196-0.025,0.298-0.025c2.963,0,5.543,1.614,6.926,4.008c0.025-0.001,0.049-0.008,0.074-0.008c2.76,0,5,2.238,5,5
		c0,0.195-0.021,0.389-0.043,0.578c0-0.001,0-0.002,0-0.002C2.243,170.068,0.563,168.5-1.5,168.5c-0.797,0-1.536,0.239-2.16,0.643
		c-0.616-2.66-2.994-4.643-5.84-4.643c-1.83,0-3.466,0.822-4.566,2.113c-0.79-0.684-1.808-1.113-2.934-1.113
		c-2.484,0-4.5,2.016-4.5,4.5c0,0.012,0.003,0.021,0.003,0.034c-0.69,0.618-1.23,1.396-1.578,2.271
		c-0.269,0.68-0.425,1.418-0.425,2.195v2h45.883c0.568,0,1.11-0.242,1.49-0.666C24.252,175.41,24.434,174.846,24.371,174.279z"/>
	<path fill="#33B5E5" d="M16.5,144.5h-24c-0.682,0-1.317,0.348-1.685,0.922c-0.368,0.575-0.417,1.297-0.131,1.916l3.488,7.559
		c0.336,0.729,1.057,1.164,1.816,1.164c0.236,0,0.476-0.043,0.709-0.131c2.498-0.949,5.124-1.43,7.803-1.43s5.305,0.48,7.802,1.428
		c0.233,0.09,0.474,0.131,0.71,0.131c0.76,0,1.48-0.435,1.816-1.162l3.488-7.56c0.285-0.619,0.235-1.341-0.133-1.916
		C17.816,144.848,17.182,144.5,16.5,144.5L16.5,144.5z"/>
</g>
</svg>
