<?xml version="1.0" encoding="utf-8"?>
<!-- Generator: Adobe Illustrator 15.0.2, SVG Export Plug-In . SVG Version: 6.00 Build 0)  -->
<!DOCTYPE svg PUBLIC "-//W3C//DTD SVG 1.1//EN" "http://www.w3.org/Graphics/SVG/1.1/DTD/svg11.dtd">
<svg version="1.1" id="Layer_1" xmlns="http://www.w3.org/2000/svg" xmlns:xlink="http://www.w3.org/1999/xlink" x="0px" y="0px"
	 width="48px" height="96px" viewBox="0 0 48 96" enable-background="new 0 0 48 96" xml:space="preserve">
<path id="White_1_" fill="#FFFFFF" d="M47.373,39.334C46.993,39.758,46.451,40,45.883,40H0c0-0.291,0-0.875,0-2
	c0-2.617,1.679-4.838,4.017-5.657C4.012,32.229,4,32.115,4,32c0-4.418,3.582-8,8-8c3.206,0,5.963,1.891,7.239,4.611
	c0.023-0.008,0.038-0.014,0.038-0.014l0.767-0.266c2.336-0.807,4.919-0.075,6.491,1.738c0.197,0.229,0.477,0.346,0.756,0.346
	c0.232,0,0.466-0.08,0.654-0.244c0.418-0.361,0.463-0.992,0.102-1.411c-1.928-2.224-5.007-3.235-7.896-2.54
	c-0.854-1.21-1.947-2.179-3.185-2.891C20.141,21.229,23.933,20,28,20c10.206,0,18.749,7.645,19.871,17.779
	C47.934,38.346,47.752,38.91,47.373,39.334z M42.789,10.895l-3.896,7.792c-0.349,0.696-1.053,1.105-1.789,1.105
	c-0.254,0-0.512-0.048-0.76-0.15C33.689,18.553,30.882,18,28,18s-5.689,0.553-8.345,1.643c-0.248,0.102-0.505,0.149-0.758,0.149
	c-0.737,0-1.441-0.409-1.79-1.106l-3.896-7.792c-0.31-0.62-0.277-1.356,0.088-1.946C13.663,8.359,14.307,8,15,8h26
	c0.693,0,1.337,0.359,1.701,0.949C43.064,9.538,43.1,10.274,42.789,10.895z"/>
<path id="Blue" fill="#33B5E5" d="M47.373,87.334C46.993,87.758,46.451,88,45.883,88H0c0-0.291,0-0.875,0-2
	c0-2.617,1.679-4.838,4.017-5.657C4.012,80.229,4,80.115,4,80c0-4.418,3.582-8,8-8c3.206,0,5.963,1.891,7.239,4.611
	c0.023-0.008,0.038-0.014,0.038-0.014l0.767-0.266c2.336-0.807,4.919-0.075,6.491,1.738c0.197,0.229,0.477,0.346,0.756,0.346
	c0.232,0,0.466-0.08,0.654-0.244c0.418-0.361,0.463-0.992,0.102-1.411c-1.928-2.224-5.007-3.235-7.896-2.54
	c-0.854-1.21-1.947-2.179-3.185-2.891C20.141,69.229,23.933,68,28,68c10.206,0,18.749,7.645,19.871,17.779
	C47.934,86.346,47.752,86.91,47.373,87.334z M42.789,58.895l-3.896,7.793c-0.349,0.696-1.053,1.105-1.789,1.105
	c-0.254,0-0.512-0.048-0.76-0.15C33.689,66.553,30.882,66,28,66s-5.689,0.553-8.345,1.643c-0.248,0.102-0.505,0.149-0.758,0.149
	c-0.737,0-1.441-0.409-1.79-1.106l-3.896-7.791c-0.31-0.621-0.277-1.356,0.088-1.946C13.663,56.359,14.307,56,15,56h26
	c0.693,0,1.337,0.359,1.701,0.949C43.064,57.538,43.1,58.273,42.789,58.895z"/>
</svg>
